<?xml version="1.0" encoding="utf-8"?>
<!-- Generator: Adobe Illustrator 28.0.0, SVG Export Plug-In . SVG Version: 6.00 Build 0)  -->
<svg version="1.1" id="Layer_1" xmlns="http://www.w3.org/2000/svg" xmlns:xlink="http://www.w3.org/1999/xlink" x="0px" y="0px"
	 viewBox="0 0 3456 2160" style="enable-background:new 0 0 3456 2160;" xml:space="preserve">
<style type="text/css">
	.st0{fill:#24737B;}
	.st1{fill:#FFFFFF;}
	.st2{font-family:'Arial-BoldMT';}
	.st3{font-size:80px;}
	.st4{fill:#FFFFFF;stroke:#FFFFFF;stroke-width:12;stroke-miterlimit:10;}
	.st5{fill:none;stroke:#FFFFFF;stroke-width:12;stroke-miterlimit:10;}
	.st6{fill:none;stroke:#FFFFFF;stroke-width:11.9994;stroke-miterlimit:9.9994;}
	.st7{font-family:'Helvetica-Bold';}
	.st8{font-size:120px;}
	.st9{font-family:'Helvetica-Light';}
	.st10{font-size:72px;}
</style>
<rect class="st0" width="3456" height="2160"/>
<text transform="matrix(1 0 0 1 195.0982 1923.9492)" class="st1 st2 st3">Asian Suncity, Block-B, 1407, Forest Dept Colony, Hyderabad, Telangana 500084</text>
<text transform="matrix(1 0 0 1 1280.8381 2043.9492)" class="st1 st2 st3">Phone: +91 8121158298</text>
<g>
	<g>
		<g>
			<circle class="st4" cx="1747.1" cy="660" r="29"/>
			<circle class="st4" cx="1552.6" cy="773.2" r="29"/>
			<circle class="st4" cx="1747.1" cy="881.2" r="29"/>
			<circle class="st4" cx="1941.6" cy="773.2" r="29"/>
			<circle class="st4" cx="1552.6" cy="992.7" r="29"/>
			<circle class="st4" cx="1747.1" cy="1102.4" r="29"/>
			<circle class="st4" cx="1941.6" cy="992.7" r="29"/>
			<ellipse class="st5" cx="1748.8" cy="882.4" rx="203.8" ry="407"/>
			
				<ellipse transform="matrix(0.866 -0.5 0.5 0.866 -206.931 992.5878)" class="st6" cx="1748.7" cy="882.4" rx="406.9" ry="203.8"/>
			
				<ellipse transform="matrix(0.5 -0.866 0.866 0.5 111.984 1952.8099)" class="st6" cx="1747.2" cy="879.4" rx="203.8" ry="406.9"/>
			<line class="st5" x1="1602.5" y1="966.6" x2="1634.5" y2="948.6"/>
			<line class="st5" x1="1659.4" y1="934" x2="1691.4" y2="915.5"/>
			<line class="st5" x1="1799.9" y1="852.8" x2="1831.9" y2="834.8"/>
			<line class="st5" x1="1856.8" y1="820.3" x2="1888.7" y2="801.7"/>
			<line class="st5" x1="1745.4" y1="719.2" x2="1745.4" y2="755.8"/>
			<line class="st5" x1="1745.4" y1="784.8" x2="1745.4" y2="821.4"/>
			<line class="st5" x1="1745.4" y1="946.8" x2="1745.4" y2="984"/>
			<line class="st5" x1="1745.4" y1="1012.4" x2="1745.4" y2="1049.6"/>
			<line class="st5" x1="1889.9" y1="966" x2="1858" y2="948"/>
			<line class="st5" x1="1833" y1="933.5" x2="1801.1" y2="914.9"/>
			<line class="st5" x1="1692.5" y1="852.2" x2="1661.2" y2="834.2"/>
			<line class="st5" x1="1635.6" y1="819.7" x2="1604.3" y2="801.1"/>
		</g>
		<text transform="matrix(1 0 0 1 520.0311 1502.73)" class="st1 st7 st8">HANYAA AUTO TECHNOLOGIES PVT LTD.</text>
	</g>
	<text transform="matrix(1 0 0 1 1161.1525 1659.021)" class="st1 st9 st10">TOGETHER, WE’LL CREATE MAGIC</text>
</g>
</svg>
