<?xml version="1.0" encoding="UTF-8"?>
<svg id="Layer_1" data-name="Layer 1" xmlns="http://www.w3.org/2000/svg" viewBox="0 0 200 50">
  <defs>
    <style>
      .cls-1 {
        letter-spacing: -.04em;
      }

      .cls-2 {
        letter-spacing: -.09em;
      }

      .cls-3 {
        font-family: Helvetica-Bold, Helvetica;
        font-size: 31.17px;
        font-weight: 700;
        isolation: isolate;
      }

      .cls-3, .cls-4 {
        fill: #fff;
      }

      .cls-5 {
        fill: none;
        stroke-width: .5px;
      }

      .cls-5, .cls-4 {
        stroke: #fff;
        stroke-miterlimit: 10;
      }

      .cls-6 {
        fill: #26737b;
        stroke-width: 0px;
      }

      .cls-4 {
        stroke-width: .25px;
      }
    </style>
  </defs>
  <rect class="cls-6" width="200" height="50"/>
  <g>
    <g>
      <circle class="cls-4" cx="31.92" cy="16.28" r="1.18"/>
      <circle class="cls-4" cx="23.98" cy="20.9" r="1.18"/>
      <circle class="cls-4" cx="31.92" cy="25.31" r="1.18"/>
      <circle class="cls-4" cx="39.85" cy="20.9" r="1.18"/>
      <circle class="cls-4" cx="23.98" cy="29.85" r="1.18"/>
      <circle class="cls-4" cx="31.92" cy="34.33" r="1.18"/>
      <circle class="cls-4" cx="39.85" cy="29.85" r="1.18"/>
      <ellipse class="cls-5" cx="31.99" cy="25.35" rx="8.31" ry="16.6"/>
      <ellipse class="cls-5" cx="31.99" cy="25.35" rx="16.6" ry="8.31" transform="translate(-8.39 19.39) rotate(-30)"/>
      <ellipse class="cls-5" cx="31.92" cy="25.23" rx="8.31" ry="16.6" transform="translate(-5.89 40.26) rotate(-60)"/>
      <line class="cls-5" x1="26.02" y1="28.79" x2="27.32" y2="28.05"/>
      <line class="cls-5" x1="28.34" y1="27.46" x2="29.64" y2="26.7"/>
      <line class="cls-5" x1="34.07" y1="24.14" x2="35.37" y2="23.41"/>
      <line class="cls-5" x1="36.39" y1="22.82" x2="37.7" y2="22.06"/>
      <line class="cls-5" x1="31.85" y1="18.7" x2="31.85" y2="20.19"/>
      <line class="cls-5" x1="31.85" y1="21.37" x2="31.85" y2="22.87"/>
      <line class="cls-5" x1="31.85" y1="27.98" x2="31.85" y2="29.5"/>
      <line class="cls-5" x1="31.85" y1="30.66" x2="31.85" y2="32.17"/>
      <line class="cls-5" x1="37.74" y1="28.76" x2="36.44" y2="28.03"/>
      <line class="cls-5" x1="35.42" y1="27.44" x2="34.12" y2="26.68"/>
      <line class="cls-5" x1="29.69" y1="24.12" x2="28.41" y2="23.39"/>
      <line class="cls-5" x1="27.37" y1="22.8" x2="26.09" y2="22.04"/>
    </g>
    <text class="cls-3" transform="translate(53.04 36.26)"><tspan x="0" y="0">HAN</tspan><tspan class="cls-2" x="67.53" y="0">Y</tspan><tspan x="85.45" y="0">A</tspan><tspan class="cls-1" x="107.96" y="0">A</tspan></text>
  </g>
</svg>